<svg width="79" height="75" viewBox="0 0 79 75" fill="none" xmlns="http://www.w3.org/2000/svg">
<path d="M74.7188 49.7815L56.3984 42.3596C55.4532 41.9571 54.4155 41.7902 53.3834 41.8746C52.3513 41.959 51.359 42.292 50.5 42.842L40.6953 49.0393C34.7197 46.2821 29.8816 41.712 26.9453 36.051L33.4297 26.6252C34.0049 25.8084 34.3561 24.868 34.4516 23.8894C34.5471 22.9108 34.3838 21.9251 33.9766 21.0217L26.125 3.61742C25.5771 2.44221 24.6494 1.46336 23.4765 0.822795C22.3035 0.182233 20.9463 -0.0867278 19.6016 0.0549152C14.3265 0.711396 9.48192 3.16532 5.96845 6.96044C2.45498 10.7556 0.511728 15.6336 0.5 20.6877C0.5 50.1526 25.7344 74.1252 56.75 74.1252C62.0701 74.1141 67.2049 72.268 71.1998 68.9302C75.1946 65.5924 77.7777 60.99 78.4688 55.9787C78.6179 54.7013 78.3347 53.4119 77.6605 52.2976C76.9862 51.1833 75.9558 50.302 74.7188 49.7815Z" fill="black"/>
</svg>
