<svg width="81" height="56" viewBox="0 0 81 56" fill="none" xmlns="http://www.w3.org/2000/svg">
<path d="M78.8339 1.79195C78.0103 1.27035 77.0129 0.925279 75.9478 0.793426C74.8828 0.661573 73.7898 0.747864 72.7851 1.04313L4.28117 21.1505C3.07962 21.4927 2.06187 22.1205 1.38462 22.9374C0.707371 23.7542 0.408183 24.7148 0.533124 25.6713C0.644592 26.6273 1.16775 27.5306 2.02415 28.2456C2.88055 28.9607 4.02403 29.449 5.28312 29.6373L22.6874 32.2166V48.4689C22.6868 49.3481 23.0357 50.2077 23.6898 50.9385C24.3438 51.6693 25.2737 52.2384 26.3612 52.5736C27.081 52.7901 27.8491 52.903 28.6249 52.9064C29.4048 52.9085 30.1773 52.7942 30.8973 52.5704C31.6174 52.3466 32.2704 52.0177 32.8183 51.6029L42.4667 44.4197L57.0507 54.0158C58.1274 54.7255 59.5116 55.1196 60.9472 55.1252C61.5785 55.1349 62.207 55.0597 62.8027 54.9033C63.7819 54.6717 64.6634 54.2531 65.3598 53.6888C66.0562 53.1246 66.5434 52.4343 66.7734 51.6861L80.7265 6.14625C80.9704 5.36044 80.923 4.53981 80.5896 3.77261C80.2561 3.0054 79.6491 2.32064 78.8339 1.79195ZM60.9843 50.6877L30.4062 30.5802L74.455 6.81188L60.9843 50.6877Z" fill="black"/>
</svg>
