<svg width="89" height="57" viewBox="0 0 89 57" fill="none" xmlns="http://www.w3.org/2000/svg">
<path d="M86.4387 9.63067C86.076 8.43536 85.3661 7.33012 84.3698 6.4097C83.3734 5.48927 82.1204 4.78111 80.718 4.3459C67.225 0.0662176 45.6836 0.09864 44.5 0.09864C43.3164 0.09864 21.775 0.0662176 8.28203 4.3459C6.87963 4.78111 5.62656 5.48927 4.63021 6.4097C3.63386 7.33012 2.92395 8.43536 2.56133 9.63067C1.53555 12.8404 0.3125 18.7412 0.3125 28.5002C0.3125 38.2592 1.53555 44.16 2.56133 47.3697C2.92395 48.565 3.63386 49.6703 4.63021 50.5907C5.62656 51.5111 6.87963 52.2193 8.28203 52.6545C21.2227 56.7721 41.5016 56.9018 44.2238 56.9018H44.7762C47.4984 56.9018 67.7773 56.7721 80.718 52.6545C82.1204 52.2193 83.3734 51.5111 84.3698 50.5907C85.3661 49.6703 86.076 48.565 86.4387 47.3697C87.4645 44.16 88.6875 38.2592 88.6875 28.5002C88.6875 18.7412 87.4645 12.8404 86.4387 9.63067ZM57.993 29.5701L39.0555 39.9451C38.8043 40.097 38.4993 40.1768 38.1875 40.1721C37.9262 40.1641 37.6702 40.1087 37.4379 40.01C37.1857 39.9022 36.9748 39.7391 36.8286 39.5388C36.6823 39.3385 36.6064 39.1088 36.6094 38.8752V18.1252C36.6064 17.8916 36.6823 17.6619 36.8286 17.4616C36.9748 17.2613 37.1857 17.0982 37.4379 16.9904C37.6895 16.8801 37.9728 16.8279 38.2576 16.8393C38.5424 16.8508 38.8181 16.9254 39.0555 17.0553L57.993 27.4303C58.213 27.5442 58.3944 27.702 58.52 27.8892C58.6457 28.0763 58.7116 28.2865 58.7116 28.5002C58.7116 28.7139 58.6457 28.9241 58.52 29.1112C58.3944 29.2983 58.213 29.4562 57.993 29.5701Z" fill="black"/>
</svg>
